<?xml version="1.0" standalone="no"?>
<!DOCTYPE svg PUBLIC "-//W3C//DTD SVG 20010904//EN" "http://www.w3.org/TR/2001/REC-SVG-20010904/DTD/svg10.dtd">
<!-- Created using Krita: https://krita.org -->
<svg xmlns="http://www.w3.org/2000/svg" 
    xmlns:xlink="http://www.w3.org/1999/xlink"
    xmlns:krita="http://krita.org/namespaces/svg/krita"
    xmlns:sodipodi="http://sodipodi.sourceforge.net/DTD/sodipodi-0.dtd"
    width="595.2pt"
    height="595.2pt"
    viewBox="0 0 595.2 595.2">
<defs/>
<path id="shape0" transform="translate(23.0399991877981, 97.9199965481417)" fill="none" stroke="#de5353" stroke-width="9.6" stroke-linecap="square" stroke-linejoin="bevel" d="M0 373.44L39.36 360.96L75.84 345.6L100.8 329.28L133.44 295.68L154.56 233.28L174.72 165.12L202.56 108.48L241.92 60.48L284.16 29.76L313.92 16.32L374.4 0L425.28 3.84L466.56 24.96L507.84 75.84L528.96 121.92L540.48 171.84L537.6 232.32L519.36 286.08L483.84 330.24L436.8 351.36L389.76 361.92L326.4 364.8L258.24 363.84L155.52 360L129.6 361.92L65.28 377.28L32.64 384.96L0 373.44" sodipodi:nodetypes="ccccccccccccccccccccccccccccc"/><path id="shape1" transform="translate(146.879994822213, 248.639991234987)" fill="none" stroke="#de5353" stroke-width="9.6" stroke-linecap="square" stroke-linejoin="bevel" d="M64.32 0L43.2 66.24L11.52 144L0 171.84L14.4 171.84L60.48 153.6L105.6 126.72L149.76 96.96L199.68 52.8L222.72 26.88L223.68 24.96" sodipodi:nodetypes="ccccccccccc"/><path id="shape2" transform="translate(455.99998392517, 231.359991844139)" fill="none" stroke="#de5353" stroke-width="9.6" stroke-linecap="square" stroke-linejoin="bevel" d="M1.92 0L0 8.64L5.76 13.44L8.64 6.72L1.92 0" sodipodi:nodetypes="ccccc"/><path id="shape3" transform="translate(533.759981183988, 230.39999187798)" fill="none" stroke="#de5353" stroke-width="9.6" stroke-linecap="square" stroke-linejoin="bevel" d="M1.92 0L0 5.76L4.8 9.6L6.72 5.76L1.92 0" sodipodi:nodetypes="ccccc"/><path id="shape4" transform="translate(501.119982334607, 244.799991370354)" fill="none" stroke="#de5353" stroke-width="9.6" stroke-linecap="square" stroke-linejoin="bevel" d="M18.24 0L0 18.24L9.6 36.48L27.84 35.52L56.64 24L18.24 0" sodipodi:nodetypes="cccccc"/><path id="shape5" transform="translate(501.119982334607, 263.039990727361)" fill="none" stroke="#de5353" stroke-width="9.6" stroke-linecap="square" stroke-linejoin="bevel" d="M0 0L23.04 1.92L51.84 5.76" sodipodi:nodetypes="ccc"/><path id="shape6" transform="translate(406.079985684941, 313.919988933748)" fill="none" stroke="#de5353" stroke-width="9.6" stroke-linecap="square" stroke-linejoin="bevel" d="M151.68 7.68L125.76 0L98.88 0.96L72 11.52L52.8 25.92L30.72 53.76L12.48 88.32L1.92 117.12L0 144" sodipodi:nodetypes="ccccccccc"/><path id="shape7" transform="translate(311.999989001432, 467.519983519069)" fill="none" stroke="#de5353" stroke-width="9.6" stroke-linecap="square" stroke-linejoin="bevel" d="M11.52 0L10.56 4.8L0 9.6L41.28 21.12L53.76 25.92L79.68 19.2L109.44 15.36L141.12 15.36L96.96 12.48L68.16 11.52L45.12 5.76L35.52 0" sodipodi:nodetypes="cccccccccccc"/><path id="shape8" transform="translate(466.55998355291, 445.439984297429)" fill="none" stroke="#de5353" stroke-width="9.6" stroke-linecap="square" stroke-linejoin="bevel" d="M3.84 8.64L7.68 23.04L0 28.8L29.76 32.64L41.28 33.6L59.52 29.76L84.48 29.76L104.64 29.76L54.72 24L34.56 20.16L25.92 20.16L19.2 6.72L14.4 0" sodipodi:nodetypes="ccccccccccccc"/>
</svg>
